<svg xmlns="http://www.w3.org/2000/svg" width="800" height="800" fill="none" viewBox="0 0 24 24"><g fill="#d33131"><path d="M3.48877 6.00387c-.72566 1.244-.96449 2.97016-.51863 4.75363.16045.6417.62689 1.4668 1.36613 2.4165.72489.9312 1.65013 1.9047 2.63009 2.8387C8.90945 17.8648 11.0006 19.4985 12 20.254c.5679-.4293 1.4884-1.1422 2.5338-2.0176.1816-.152.4106-.2364.6474-.2364h.0943c.9109 0 1.3341 1.1044.6368 1.6905-1.1361.9551-2.1348 1.7275-2.7313 2.1778-.7007.5291-1.6613.5291-2.362 0-1.01467-.7661-3.19317-2.4641-5.23252-4.4078-1.01915-.9714-2.02063-2.0203-2.82842-3.058-.79345-1.0193-1.46566-2.1098-1.7282-3.16-.554146-2.21653-.292976-4.49037.73135-6.24637C2.80291 3.21035 4.62017 2 6.99998 2c2.5904 0 4.09692 1.95772 4.89442 3.55278.0363.07257.0715.14506.1056.21733.0341-.07227.0693-.14476.1056-.21732C12.9031 3.95772 14.4096 2 17 2c2.3798 0 4.1971 1.21035 5.2388 2.99613.873 1.49658 1.1917 3.36931.9237 5.26217-.0617.4363-.4484.7417-.889.7417-.6451 0-1.1045-.6414-1.0348-1.28269.1387-1.27723-.1016-2.64048-.7275-3.71344C19.8029 4.78965 18.6202 4 17 4c-1.4096 0-2.4031 1.04228-3.1056 2.44721-.3375.67507-.5669 1.36024-.7121 1.88294-.0721.25944-.1221.4742-.1537.62157C12.9167 9.47392 12.3143 9.5 12 9.5c-.3143 0-.9177-.03095-1.0286-.54828-.0316-.14736-.0816-.36213-.1537-.62157-.1452-.5227-.3746-1.20786-.7121-1.88293C9.40308 5.04228 8.40956 4 6.99998 4c-1.62019 0-2.80292.78965-3.51121 2.00387Z"/><path d="M15.9191 9.60608c-.1533-.35789-.5005-.59421-.8897-.60565-.3892-.01144-.7497.20409-.9238.55236L12.382 13H9c-.55229 0-1 .4477-1 1s.44771 1 1 1h4c.3788 0 .725-.214.8944-.5528l1.0358-2.0715 2.1506 5.0182c.1407.3282.4457.5565.8002.599.3545.0425.7048-.1073.919-.3929l2.7-3.6H23c.5523 0 1-.4477 1-1s-.4477-1-1-1h-2c-.3148 0-.6112.1482-.8.4l-1.9622 2.6163-2.3187-5.41022Z"/></g></svg>